<svg width="68.661mm" height="82.796mm" version="1.1" viewBox="0 0 259.51 312.93" xmlns="http://www.w3.org/2000/svg">
  <style type="text/css">.st0{fill:#262262;}
	.st1{fill:#613BBC;}
	.st2{fill:#7745D8;}
	.st3{fill:#9174E8;}
	.st4{fill:#F1F2F2;}
	.st5{fill:#120533;}
	.st6{opacity:0.1;fill:#FFFFFF;}
	.st7{opacity:0.3;fill:#FFFFFF;}</style>
  <g transform="matrix(-.39849 0 0 -.39849 401.87 449.08)">
    <g transform="matrix(1.081 0 0 1.081 -83.473 -51.609)">
      <g transform="rotate(180 704.36 607.91)">
        <path class="st1" d="m628.5 445.2s-127.3 43-134.2 110.3c-11.5 113.2 71.7 98.6 116.3 129.3 44.7 30.7 30.7 64.7-10.7 77.4-29 8.9-46.7 18.6-45.3 49.9 1.3 31.3 26.7 47.7 56.7 36.3 13.5-5.1 16.7-22.7 16.7-22.7-8.7 12.3-53.1 30.1-46.3-13 3.6-22.9 38.3-22 67.7-42.7 25.7-18.1 40-52 15.3-96.7-35.2-63.8-113.5-40.6-114.8-88.6-1.2-42.8 110.7-68.2 110.7-68.2z"/>
        <path class="st2" d="m559.7 614.8c-14.7-13.7-9.8-30-9.8-30 1.3 48 79.6 24.9 114.8 88.6 9.4 17 13.1 32.4 12.8 46-5.5-18.4-15.3-40.2-33.8-59-24-24.2-69.4-31.9-84-45.6z"/>
        <path class="st2" d="m494.3 555.5c4.7-46.4 66.5-81.2 104.6-98.4l-10.9 14.7s-55 39.7-77 82.3c-12.8 24.8-10.9 51.6-7.2 69.8-8.5-15.3-12.6-36.9-9.5-68.4z"/>
        <path class="st3" d="m526.2 535.9c-4.4 6.8-4.2 14.8 0.6 17.9 4.7 3.1 12.2 0.1 16.6-6.7s4.2-14.8-0.6-17.9c-4.7-3.1-12.2-0.1-16.6 6.7zm0.2 1.7c3.2-4.9 8.6-7.1 12-4.9s3.6 8 0.4 13c-3.2 4.9-8.6 7.1-12 4.9-3.4-2.3-3.6-8.1-0.4-13z"/>
        <path class="st3" d="m549.3 511.9c-4.4 6.8-4.2 14.8 0.6 17.9 4.7 3.1 12.2 0.1 16.6-6.7s4.2-14.8-0.6-17.9-12.2-0.1-16.6 6.7zm0.2 1.7c3.2-4.9 8.6-7.1 12-4.9s3.6 8 0.4 13c-3.2 4.9-8.6 7.1-12 4.9-3.4-2.3-3.6-8.1-0.4-13z"/>
        <path class="st3" d="m544.2 547.9c-4.4 6.8-4.2 14.8 0.6 17.9 4.7 3.1 12.2 0.1 16.6-6.7s4.2-14.8-0.6-17.9c-4.8-3.2-12.2-0.2-16.6 6.7zm0.2 1.6c3.2-4.9 8.6-7.1 12-4.9s3.6 8 0.4 13-8.6 7.1-12 4.9c-3.4-2.3-3.6-8.1-0.4-13z"/>
        <path class="st3" d="m509.2 567.8c-2.9 7.1-1.2 14.6 3.7 16.6 5 2 11.4-2.1 14.3-9.2s1.2-14.6-3.7-16.6c-5-2.1-11.4 2.1-14.3 9.2zm0.5 1.5c2.1-5.2 6.7-8.2 10.3-6.7s4.8 6.8 2.7 12-6.7 8.2-10.3 6.7-4.8-6.9-2.7-12z"/>
        <path class="st3" d="m527.2 577.3c-2.9 7.1-1.2 14.6 3.7 16.6 5 2 11.4-2.1 14.3-9.2s1.2-14.6-3.7-16.6c-4.9-2.1-11.3 2-14.3 9.2zm0.6 1.5c2.1-5.2 6.7-8.2 10.3-6.7s4.8 6.8 2.7 12-6.7 8.2-10.3 6.7-4.9-6.9-2.7-12z"/>
        <path class="st3" d="m581.3 668.7c-2.8-2.2-4.7-5.1-5.2-7.8 1-0.3 1.9-0.6 2.9-0.9-1 2.5 0.4 6.2 3.6 8.6 3.6 2.8 8.1 3 10.1 0.5s0.6-6.8-3-9.6c-1.1-0.8-2.2-1.4-3.4-1.8 1.6-0.5 3.3-1 4.9-1.5 4.9 3.9 6.7 9.8 4 13.2-2.7 3.5-8.9 3.2-13.9-0.7z"/>
        <path class="st3" d="m592.3 655.8c0.4-0.1 0.8-0.3 1.3-0.4 0.7 0.9 1.6 1.8 2.6 2.6 4.4 3.4 9.6 4 11.7 1.3 1.6-2 0.9-5.3-1.3-8.3 1.2-0.4 2.3-0.9 3.4-1.3 2.3 3.7 2.8 7.6 0.9 10.1-2.9 3.7-10.2 3-16.2-1.7-0.9-0.8-1.7-1.5-2.4-2.3z"/>
        <path class="st3" d="m611.8 684.4c5 3.9 11.2 4.2 13.9 0.7s0.8-9.4-4.1-13.3-11.2-4.2-13.9-0.7-0.9 9.4 4.1 13.3zm1.3-0.1c-3.6-2.8-4.9-7.1-3-9.6 2-2.5 6.5-2.3 10.1 0.5s4.9 7.1 3 9.6c-2 2.6-6.5 2.3-10.1-0.5z"/>
        <path class="st3" d="m625.2 673.7c6 4.7 13.3 5.5 16.2 1.7 2.9-3.7 0.4-10.6-5.7-15.3-6-4.7-13.3-5.5-16.2-1.7s-0.3 10.7 5.7 15.3zm1.5 0c-4.4-3.4-6.2-8.3-4.1-11.1 2.1-2.7 7.4-2.1 11.7 1.3 4.4 3.4 6.2 8.3 4.1 11.1-2.1 2.7-7.4 2.1-11.7-1.3z"/>
        <path class="st3" d="m632.2 702.9c3.9 4.4 9.5 5.8 12.6 3.1s2.4-8.5-1.5-12.9-9.5-5.8-12.6-3.1c-3 2.7-2.4 8.5 1.5 12.9zm1.2 0.1c-2.8-3.2-3.3-7.4-1.1-9.3 2.2-2 6.3-1 9.1 2.2s3.3 7.4 1.1 9.3c-2.2 2-6.3 1-9.1-2.2z"/>
        <path class="st3" d="m646.4 695.4c4.7 5.4 11.2 7.3 14.6 4.4 3.3-2.9 2.2-9.6-2.5-15s-11.2-7.3-14.6-4.4c-3.4 3-2.2 9.7 2.5 15zm1.3 0.3c-3.4-3.9-4.2-8.7-1.8-10.9 2.4-2.1 7.1-0.7 10.5 3.2s4.2 8.7 1.8 10.9c-2.3 2.1-7 0.7-10.5-3.2z"/>
        <path class="st3" d="m643.9 722c2.2 4.9 6.7 7.7 10.1 6.2s4.5-6.7 2.3-11.6-6.7-7.7-10.1-6.2c-3.5 1.5-4.5 6.7-2.3 11.6zm0.9 0.5c-1.6-3.6-0.8-7.3 1.7-8.4s5.8 0.9 7.3 4.5c1.6 3.6 0.8 7.3-1.7 8.4-2.4 1-5.7-1-7.3-4.5z"/>
        <path class="st3" d="m658.2 719.5c2.6 6 7.7 9.5 11.4 7.9s4.6-7.8 2-13.7-7.7-9.5-11.4-7.9c-3.7 1.5-4.6 7.7-2 13.7zm1.1 0.6c-1.9-4.3-1.3-8.8 1.4-9.9 2.7-1.2 6.4 1.4 8.3 5.7s1.3 8.8-1.4 9.9-6.4-1.4-8.3-5.7z"/>
        <path class="st3" d="m643.9 737.3c-1 4.5 0.7 8.8 3.9 9.5s6.5-2.4 7.6-6.9c1-4.5-0.7-8.8-3.9-9.5s-6.6 2.4-7.6 6.9zm0.4 0.8c0.7-3.3 3.2-5.5 5.5-5s3.5 3.6 2.8 6.9-3.2 5.5-5.5 5-3.5-3.6-2.8-6.9z"/>
        <path class="st3" d="m655.2 742.9c-1.2 5.5 0.5 10.6 3.9 11.3 3.4 0.8 7.2-3.1 8.4-8.6s-0.5-10.6-3.9-11.3c-3.5-0.8-7.2 3.1-8.4 8.6zm0.4 1c0.9-4 3.6-6.8 6.1-6.2s3.7 4.2 2.8 8.2-3.6 6.8-6.1 6.2c-2.4-0.6-3.7-4.3-2.8-8.2z"/>
        <path class="st3" d="m502.8 607.5c0.3 8.4 4.7 15.1 9.8 14.9s9-7.2 8.6-15.6c-0.3-8.4-4.7-15.1-9.8-14.9-5 0.1-8.9 7.1-8.6 15.6zm1.1 1.2c-0.2-6.1 2.6-11.2 6.3-11.3s6.9 4.7 7.1 10.8-2.6 11.2-6.3 11.3-6.9-4.7-7.1-10.8z"/>
        <path class="st3" d="m525 610.3c0 7.1 3.4 12.8 7.6 12.8s7.5-5.8 7.5-12.9-3.4-12.8-7.6-12.8-7.5 5.8-7.5 12.9zm0.8 1c0-5.1 2.4-9.3 5.4-9.3s5.5 4.1 5.5 9.3-2.4 9.3-5.4 9.3-5.5-4.1-5.5-9.3z"/>
        <path class="st3" d="m518.5 639.8c3.8 5.2 9.4 7.6 12.5 5.4s2.4-8.3-1.4-13.5-9.4-7.6-12.5-5.4c-3 2.2-2.4 8.3 1.4 13.5zm1.2 0.4c-2.8-3.8-3.2-8.2-1-9.8s6.3 0.1 9 3.9c2.8 3.8 3.2 8.2 1 9.8s-6.2-0.1-9-3.9z"/>
        <path class="st3" d="m540.5 623.7c2.4-1.3 5.6-0.4 8.4 2-1.7 0.6-3.3 1.3-5 2-0.9-0.1-1.7 0-2.5 0.4-0.5 0.3-1 0.7-1.3 1.2-0.9 0.4-1.7 0.8-2.6 1.2-0.1-3.1 0.9-5.7 3-6.8z"/>
        <path class="st1" d="m771.5 445.2s127.3 43 134.2 110.3c11.5 113.2-71.7 98.6-116.3 129.3-44.7 30.7-30.7 64.7 10.7 77.4 29 8.9 46.7 18.6 45.3 49.9s-26.7 47.7-56.7 36.3c-13.5-5.1-16.7-22.7-16.7-22.7 8.7 12.3 53.1 30.1 46.3-13-3.6-22.9-38.3-22-67.7-42.7-25.7-18.1-40-52-15.3-96.7 35.2-63.8 113.5-40.6 114.8-88.6 1.2-42.8-110.7-68.2-110.7-68.2z"/>
        <path class="st2" d="m840.3 614.8c14.7-13.7 9.8-30 9.8-30-1.3 48-79.6 24.9-114.8 88.6-9.4 17-13.1 32.4-12.8 46 5.5-18.4 15.3-40.2 33.8-59 24-24.2 69.4-31.9 84-45.6z"/>
        <path class="st2" d="m905.7 555.5c-4.7-46.4-66.5-81.2-104.6-98.4l10.9 14.7s55 39.7 77 82.3c12.8 24.8 10.9 51.6 7.2 69.8 8.5-15.3 12.6-36.9 9.5-68.4z"/>
        <path class="st3" d="m857.2 529.2c-4.7 3.1-5 11.1-0.6 17.9s11.9 9.8 16.6 6.7 5-11.1 0.6-17.9-11.9-9.8-16.6-6.7zm16 21.3c-3.4 2.2-8.8 0-12-4.9s-3-10.7 0.4-13c3.4-2.2 8.8 0 12 4.9s3 10.8-0.4 13z"/>
        <path class="st3" d="m834.1 505.2c-4.7 3.1-5 11.1-0.6 17.9s11.9 9.8 16.6 6.7 5-11.1 0.6-17.9-11.8-9.8-16.6-6.7zm16 21.3c-3.4 2.2-8.8 0-12-4.9s-3-10.7 0.4-13c3.4-2.2 8.8 0 12 4.9 3.2 5 3 10.8-0.4 13z"/>
        <path class="st3" d="m839.2 541.1c-4.7 3.1-5 11.1-0.6 17.9s11.9 9.8 16.6 6.7 5-11.1 0.6-17.9-11.8-9.8-16.6-6.7zm16 21.3c-3.4 2.2-8.8 0-12-4.9s-3-10.7 0.4-13c3.4-2.2 8.8 0 12 4.9s3 10.8-0.4 13z"/>
        <path class="st3" d="m876.6 558.5c-5 2-6.6 9.5-3.7 16.6s9.3 11.3 14.3 9.2c5-2 6.6-9.5 3.7-16.6-3-7-9.4-11.2-14.3-9.2zm11 22.8c-3.6 1.5-8.2-1.5-10.3-6.7s-0.9-10.5 2.7-12 8.2 1.5 10.3 6.7 0.9 10.5-2.7 12z"/>
        <path class="st3" d="m858.5 568c-5 2-6.6 9.5-3.7 16.6s9.3 11.3 14.3 9.2c5-2 6.6-9.5 3.7-16.6-3-7.1-9.4-11.2-14.3-9.2zm11 22.8c-3.6 1.5-8.2-1.5-10.3-6.7s-0.9-10.5 2.7-12 8.2 1.5 10.3 6.7c2.2 5.1 0.9 10.5-2.7 12z"/>
        <path class="st3" d="m818.7 668.7c2.8-2.2 4.7-5.1 5.2-7.8-1-0.3-1.9-0.6-2.9-0.9 1 2.5-0.4 6.2-3.6 8.6-3.6 2.8-8.1 3-10.1 0.5s-0.6-6.8 3-9.6c1.1-0.8 2.2-1.4 3.4-1.8-1.6-0.5-3.3-1-4.9-1.5-4.9 3.9-6.7 9.8-4 13.2 2.7 3.5 8.9 3.2 13.9-0.7z"/>
        <path class="st3" d="m807.7 655.8c-0.4-0.1-0.8-0.3-1.3-0.4-0.7 0.9-1.6 1.8-2.6 2.6-4.4 3.4-9.6 4-11.7 1.3-1.6-2-0.9-5.3 1.3-8.3-1.2-0.4-2.3-0.9-3.4-1.3-2.3 3.7-2.8 7.6-0.9 10.1 2.9 3.7 10.2 3 16.2-1.7 0.9-0.8 1.7-1.5 2.4-2.3z"/>
        <path class="st3" d="m792.3 671.1c-2.7-3.5-8.9-3.2-13.9 0.7s-6.8 9.8-4.1 13.3 8.9 3.2 13.9-0.7 6.8-9.8 4.1-13.3zm-15.4 13.8c-2-2.5-0.6-6.8 3-9.6s8.1-3 10.1-0.5 0.6 6.8-3 9.6c-3.7 2.7-8.2 3-10.1 0.5z"/>
        <path class="st3" d="m780.5 658.5c-2.9-3.7-10.2-3-16.2 1.7s-8.6 11.5-5.7 15.3 10.2 3 16.2-1.7 8.6-11.6 5.7-15.3zm-18.9 16.5c-2.1-2.7-0.3-7.7 4.1-11.1s9.6-4 11.7-1.3 0.3 7.7-4.1 11.1-9.6 4-11.7 1.3z"/>
        <path class="st3" d="m769.2 690c-3.1-2.7-8.7-1.3-12.6 3.1s-4.6 10.2-1.5 12.9 8.7 1.3 12.6-3.1 4.6-10.2 1.5-12.9zm-11.7 15.3c-2.2-2-1.8-6.1 1.1-9.3 2.8-3.2 6.9-4.2 9.1-2.2s1.8 6.1-1.1 9.3c-2.8 3.1-6.9 4.1-9.1 2.2z"/>
        <path class="st3" d="m756.2 680.4c-3.3-2.9-9.8-0.9-14.6 4.4-4.7 5.4-5.9 12.1-2.5 15 3.3 2.9 9.8 0.9 14.6-4.4s5.8-12 2.5-15zm-14.5 18.5c-2.4-2.1-1.6-7 1.8-10.9s8.1-5.3 10.5-3.2 1.6 7-1.8 10.9-8.1 5.3-10.5 3.2z"/>
        <path class="st3" d="m753.8 710.4c-3.4-1.5-8 1.3-10.1 6.2-2.2 4.9-1.1 10.1 2.3 11.6s8-1.3 10.1-6.2 1.2-10.1-2.3-11.6zm-5.9 16.5c-2.5-1.1-3.2-4.9-1.7-8.4s4.8-5.6 7.3-4.5 3.2 4.9 1.7 8.4c-1.6 3.6-4.9 5.6-7.3 4.5z"/>
        <path class="st3" d="m739.8 705.7c-3.7-1.6-8.8 1.9-11.4 7.9s-1.7 12.1 2 13.7 8.8-1.9 11.4-7.9 1.7-12.1-2-13.7zm-7.4 20.1c-2.7-1.2-3.3-5.6-1.4-9.9s5.6-6.9 8.3-5.7 3.3 5.6 1.4 9.9-5.6 6.8-8.3 5.7z"/>
        <path class="st3" d="m748.6 730.4c-3.2 0.7-4.9 5-3.9 9.5s4.4 7.6 7.6 6.9 4.9-5 3.9-9.5c-1.1-4.5-4.5-7.6-7.6-6.9zm4.3 14.6c-2.3 0.5-4.7-1.7-5.5-5-0.7-3.3 0.5-6.3 2.8-6.9s4.7 1.7 5.5 5-0.5 6.4-2.8 6.9z"/>
        <path class="st3" d="m736.5 734.3c-3.4 0.8-5.1 5.8-3.9 11.3s5 9.3 8.4 8.6c3.4-0.8 5.1-5.8 3.9-11.3-1.3-5.5-5-9.4-8.4-8.6zm5.1 17.8c-2.5 0.6-5.2-2.2-6.1-6.2s0.4-7.6 2.8-8.2c2.5-0.6 5.2 2.2 6.1 6.2 0.9 3.9-0.4 7.6-2.8 8.2z"/>
        <path class="st3" d="m888.5 591.8c-5.1-0.2-9.5 6.5-9.8 14.9s3.5 15.4 8.6 15.6 9.5-6.5 9.8-14.9c0.4-8.4-3.5-15.4-8.6-15.6zm0.5 27.7c-3.7-0.1-6.5-5.2-6.3-11.3s3.4-10.9 7.1-10.8 6.5 5.2 6.3 11.3-3.4 10.9-7.1 10.8z"/>
        <path class="st3" d="m867.5 597.4c-4.2 0-7.6 5.7-7.6 12.8s3.3 12.9 7.5 12.9 7.6-5.7 7.6-12.8-3.4-12.9-7.5-12.9zm1.2 23.2c-3 0-5.5-4.2-5.4-9.3 0-5.1 2.5-9.3 5.5-9.3s5.5 4.2 5.4 9.3c0 5.2-2.5 9.3-5.5 9.3z"/>
        <path class="st2" d="m912 351.83c-34.7 8.7-78.7 71.3-123.3 43.3-44.7-28 84.7-108 32.4-216.7-28.6-59.4-121.1-52.6-121.1-52.6s-92.5-6.8-121.1 52.7c-52.2 108.7 77.1 188.7 32.4 216.7s-88.7-34.7-123.3-43.3c-34.7-8.7-96.7 13.3-88.7 73.3s62 68 75.3 64.7 54-4 59.3 3.3 14 16 15.3 13.3-6.6-36.7-34.6-43.3c-28-6.7-64.7 4-80-19.3s13.3-56 34-50.7 58 64 87.3 73.3 48 5.8 48 5.8-20.3 15.4-30.5 53.4c-10 37.3 9.9 58.8 5.4 80.8-3.9 18.9-83 13.5-81 80.2s68 80.7 87.3 70c22-12.2 20.7-41.3-4.7-53.3 0 0 15.2 34.3-4.7 32-35-4-44.8-32.8-39.5-51.5 8-28 87.6-28 98.9-55.3s-4-58.7 6.7-75.3c10.7-16.7 58-40 58-40s47.3 23.3 58 40-4.7 48 6.7 75.3c11.3 27.3 90.9 27.3 98.9 55.3 5.3 18.7-4.5 47.5-39.5 51.5-19.9 2.3-4.7-32-4.7-32-25.3 12-26.7 41.2-4.7 53.3 19.3 10.7 85.3-3.3 87.3-70s-77.1-61.2-81-80.2c-4.5-22 15.4-43.4 5.4-80.8-10.2-38-30.5-53.4-30.5-53.4s18.6 3.5 48-5.8 66.7-68 87.3-73.3c20.7-5.3 49.3 27.3 34 50.7-15.3 23.3-52 12.7-80 19.3-28 6.7-36 40.7-34.6 43.3s10-6 15.3-13.3 46-6.7 59.3-3.3c13.3 3.3 67.3-4.7 75.3-64.7s-53.6-82.1-88.3-73.4z"/>
        <ellipse class="st1" transform="matrix(.9945 -.105 .105 .9945 -42.807 86.609)" cx="801.4" cy="450" rx="8.3" ry="6.7"/>
        <ellipse class="st1" transform="matrix(.9945 -.105 .105 .9945 -43.279 88.121)" cx="815.5" cy="455.2" rx="5.3" ry="4.3"/>
        <ellipse class="st1" transform="matrix(.9945 -.105 .105 .9945 -42.257 89.209)" cx="826.3" cy="446" rx="7.3" ry="5.9"/>
        <ellipse class="st1" transform="matrix(.9945 -.105 .105 .9945 -41.327 87.864)" cx="814" cy="436.5" rx="5.9" ry="4.8"/>
        <ellipse class="st1" transform="matrix(.9945 -.105 .105 .9945 -42.251 87.958)" cx="814.4" cy="445.3" rx="2" ry="1.6"/>
        <ellipse class="st1" transform="matrix(.9945 -.105 .105 .9945 -43.74 86.973)" cx="804.3" cy="459" rx="2" ry="1.6"/>
        <ellipse class="st1" transform="matrix(.9945 -.105 .105 .9945 -41.618 86.42)" cx="800.1" cy="438.6" rx="2" ry="1.6"/>
        <ellipse class="st1" transform="matrix(.9945 -.105 .105 .9945 -42.813 83.327)" cx="770.2" cy="448.4" rx="2" ry="1.6"/>
        <ellipse class="st1" transform="matrix(.9945 -.105 .105 .9945 -40.95 89.117)" cx="826.1" cy="433.6" rx="2.8" ry="2.3"/>
        <ellipse class="st1" transform="matrix(.9945 -.105 .105 .9945 -43.415 85.091)" cx="786.6" cy="455" rx="2.8" ry="2.3"/>
        <ellipse class="st1" transform="matrix(.9945 -.105 .105 .9945 -41.487 91.251)" cx="846.1" cy="439.7" rx="2.8" ry="2.3"/>
        <ellipse class="st1" transform="matrix(.9945 -.105 .105 .9945 -42.435 84.935)" cx="785.6" cy="445.6" rx="2.8" ry="2.3"/>
        <ellipse class="st1" transform="matrix(.9945 -.105 .105 .9945 -42.805 90.434)" cx="837.7" cy="451.8" rx="3.4" ry="2.7"/>
        <ellipse class="st1" transform="matrix(.9945 -.105 .105 .9945 -43.341 89.479)" cx="828.4" cy="456.5" rx="2" ry="1.6"/>
        <ellipse class="st1" transform="matrix(.7837 -.6212 .6212 .7837 -151.02 566.3)" cx="737.5" cy="500" rx="6.7" ry="8.3"/>
        <ellipse class="st1" transform="matrix(.7837 -.6212 .6212 .7837 -159.5 571.44)" cx="740.7" cy="514.7" rx="4.3" ry="5.3"/>
        <ellipse class="st1" transform="matrix(.7837 -.6212 .6212 .7837 -159.21 580.78)" cx="754.2" cy="519" rx="5.9" ry="7.3"/>
        <ellipse class="st1" transform="matrix(.7837 -.6212 .6212 .7837 -149.28 578.31)" cx="755.7" cy="503.5" rx="4.8" ry="5.9"/>
        <ellipse class="st1" transform="matrix(.7837 -.6212 .6212 .7837 -154 574.93)" cx="748.4" cy="508.6" rx="1.6" ry="2"/>
        <ellipse class="st1" transform="matrix(.7837 -.6212 .6212 .7837 -156.91 564.14)" cx="731.5" cy="507.3" rx="1.6" ry="2"/>
        <ellipse class="st1" transform="matrix(.7837 -.6212 .6212 .7837 -144.66 570.34)" cx="746.5" cy="492.9" rx="1.6" ry="2"/>
        <ellipse class="st1" transform="matrix(.7837 -.6212 .6212 .7837 -137.46 550.88)" cx="722.2" cy="472.8" rx="1.6" ry="2"/>
        <ellipse class="st1" transform="matrix(.7837 -.6212 .6212 .7837 -152.69 585.76)" cx="764.6" cy="512.1" rx="2.3" ry="2.8"/>
        <ellipse class="st1" transform="matrix(.7837 -.6212 .6212 .7837 -147.59 556.66)" cx="725.4" cy="490.2" rx="2.3" ry="2.8"/>
        <ellipse class="st1" transform="matrix(.7837 -.6212 .6212 .7837 -164.05 593.54)" cx="770.1" cy="532.3" rx="2.3" ry="2.8"/>
        <ellipse class="st1" transform="matrix(.7837 -.6212 .6212 .7837 -142.35 559.99)" cx="732.8" cy="484.4" rx="2.3" ry="2.8"/>
        <ellipse class="st1" transform="matrix(.7837 -.6212 .6212 .7837 -166.85 584.25)" cx="755.4" cy="531.7" rx="2.7" ry="3.4"/>
        <ellipse class="st1" transform="matrix(.7837 -.6212 .6212 .7837 -165.41 577.55)" cx="746.5" cy="526.3" rx="1.6" ry="2"/>
        <ellipse class="st1" transform="matrix(.5776 -.8163 .8163 .5776 -153.29 746.73)" cx="644.9" cy="521.5" rx="8.3" ry="6.7"/>
        <ellipse class="st1" transform="matrix(.5776 -.8163 .8163 .5776 -141.85 754.53)" cx="658.2" cy="514.3" rx="5.3" ry="4.3"/>
        <ellipse class="st1" transform="matrix(.5776 -.8163 .8163 .5776 -130.14 748.76)" cx="658.5" cy="500.1" rx="7.3" ry="5.9"/>
        <ellipse class="st1" transform="matrix(.5776 -.8163 .8163 .5776 -139.02 737.55)" cx="643.2" cy="503.1" rx="5.9" ry="4.8"/>
        <ellipse class="st1" transform="matrix(.5776 -.8163 .8163 .5776 -140.59 745.52)" cx="650.1" cy="508.6" rx="2" ry="1.6"/>
        <ellipse class="st1" transform="matrix(.5776 -.8163 .8163 .5776 -152.63 755.45)" cx="653.7" cy="525.2" rx="2" ry="1.6"/>
        <ellipse class="st1" transform="matrix(.5776 -.8163 .8163 .5776 -151.84 736.3)" cx="635.6" cy="514.9" rx="2" ry="1.6"/>
        <ellipse class="st1" transform="matrix(.5776 -.8163 .8163 .5776 -180.75 738.4)" cx="623.2" cy="543.9" rx="2" ry="1.6"/>
        <ellipse class="st1" transform="matrix(.5776 -.8163 .8163 .5776 -127.58 737.59)" cx="649" cy="492.1" rx="2.8" ry="2.3"/>
        <ellipse class="st1" transform="matrix(.5776 -.8163 .8163 .5776 -167.53 747.94)" cx="639" cy="535.9" rx="2.8" ry="2.3"/>
        <ellipse class="st1" transform="matrix(.5776 -.8163 .8163 .5776 -111.1 747.53)" cx="666.8" cy="481.1" rx="2.8" ry="2.3"/>
        <ellipse class="st1" transform="matrix(.5776 -.8163 .8163 .5776 -166.33 739.34)" cx="631.3" cy="530.4" rx="2.8" ry="2.3"/>
        <ellipse class="st1" transform="matrix(.5776 -.8163 .8163 .5776 -121.29 756.47)" cx="670.3" cy="495.4" rx="3.4" ry="2.7"/>
        <ellipse class="st1" transform="matrix(.5776 -.8163 .8163 .5776 -130.65 758.51)" cx="667.6" cy="505.5" rx="2" ry="1.6"/>
        <path class="st1" d="m731.8 501s22.5 18 32.8 32.2 5 44.5 5 44.5-2.7-25.7-13.2-37.8-28-22.4-28-22.4z"/>
        <path class="st3" d="m882.9 626.3c-3.1-2.2-8.7 0.2-12.5 5.4s-4.5 11.3-1.4 13.5 8.7-0.2 12.5-5.4 4.4-11.3 1.4-13.5zm-11.6 17.8c-2.2-1.6-1.8-6 1-9.8s6.8-5.5 9-3.9 1.8 6-1 9.8-6.8 5.5-9 3.9z"/>
        <path class="st3" d="m859.5 623.7c-2.4-1.3-5.6-0.4-8.4 2 1.7 0.6 3.3 1.3 5 2 0.9-0.1 1.7 0 2.5 0.4 0.5 0.3 1 0.7 1.3 1.2 0.9 0.4 1.7 0.8 2.6 1.2 0.1-3.1-0.9-5.7-3-6.8z"/>
        <path class="st1" d="m566.5 227.7c7.8 21.1 25.9 30 38.2 39.8 16 12.7 22 52 22 52l-14.5 35.4c-16.2-31.2-48.8-74.7-45.7-127.2z"/>
        <path class="st3" d="m592.7 528.8c-9.6 15.4-14.1 40.2-16.1 55-3.9-15-9.4-32.2-3.1-55.7 8.4-31.4 23.7-47.3 28.8-52 0.6-0.5 1.1-1 1.7-1.5 16.6-13.8 46-53.8 46-53.8s-0.3 27.3-7.3 43.7c-7 16.3-35.7 41.3-50 64.3z"/>
        <path class="st3" d="m578.9 608.8c0.7 25.6-25.7 30.4-48.3 43.3-13.3 7.6-24.9 28-32.3 43.4-0.2-2.1-0.4-4.3-0.4-6.6-2-66.6 77.1-61.1 81-80.1z"/>
        <path class="st3" d="m399.7 405.5c7.8-43.3 58.3-58.8 88.3-51.3 34.7 8.7 78.7 71.3 123.3 43.3 3.9-2.4 6.5-5.4 8-8.9 0 0-7.4 30.2-48.7 19.6-41.3-10.7-68.5-47.1-108.3-43.3-37.5 3.5-56.2 26.7-62.6 40.6z"/>
        <path class="st3" d="m544.8 724.2c-2.5-3-6.3-4.1-8.5-2.3s-1.8 5.7 0.8 8.7c2.5 3 6.3 4.1 8.5 2.3s1.7-5.6-0.8-8.7zm-0.8-0.1c1.8 2.2 2.1 5 0.6 6.3s-4.3 0.5-6.1-1.7-2.1-5-0.6-6.3c1.5-1.2 4.3-0.5 6.1 1.7z"/>
        <path class="st3" d="m535.1 729c-3.1-3.7-7.4-5.1-9.7-3.2s-1.6 6.5 1.5 10.2 7.4 5.1 9.7 3.2 1.6-6.5-1.5-10.2zm-0.9-0.2c2.2 2.7 2.7 6 1.1 7.3-1.7 1.4-4.8 0.3-7-2.3-2.2-2.7-2.7-6-1.1-7.3 1.6-1.4 4.8-0.4 7 2.3z"/>
        <path class="st3" d="m536.5 711.5c-1.2-3.8-4.3-6.2-7-5.3-2.6 0.8-3.8 4.6-2.6 8.4s4.3 6.2 7 5.3 3.8-4.6 2.6-8.4zm-0.7-0.4c0.9 2.7 0 5.4-1.9 6.1-1.9 0.6-4.2-1.1-5-3.9-0.9-2.7 0-5.4 1.9-6.1 1.9-0.6 4.1 1.2 5 3.9z"/>
        <path class="st3" d="m525.7 712.3c-1.5-4.6-5-7.6-7.8-6.7s-3.9 5.4-2.5 10c1.5 4.6 5 7.6 7.8 6.7s4-5.4 2.5-10zm-0.7-0.5c1.1 3.3 0.3 6.5-1.8 7.2s-4.6-1.5-5.6-4.8c-1.1-3.3-0.3-6.5 1.8-7.2 2-0.7 4.5 1.4 5.6 4.8z"/>
        <path class="st3" d="m534.3 697c1.5-3.7 1.4-7.2-0.2-7.9s-4.2 1.8-5.7 5.4c-1.5 3.7-1.4 7.2 0.2 7.9s4.2-1.7 5.7-5.4zm-0.1-0.7c-1.1 2.7-2.9 4.4-4.1 3.9s-1.3-3-0.2-5.7 2.9-4.4 4.1-3.9 1.3 3.1 0.2 5.7z"/>
        <path class="st3" d="m527.7 693.6c1.8-4.5 1.1-9-1.7-10.1s-6.5 1.6-8.3 6-1.1 9 1.7 10.1 6.4-1.6 8.3-6zm-0.3-0.9c-1.3 3.2-4 5.2-6 4.4s-2.5-4.1-1.2-7.3 4-5.2 6-4.4 2.5 4 1.2 7.3z"/>
        <path class="st3" d="m554.8 733.8c-2.6-1.6-5.7-1.4-6.8 0.4s0.1 4.6 2.8 6.2c2.6 1.6 5.7 1.4 6.8-0.4s-0.1-4.6-2.8-6.2zm-0.6 0.1c1.9 1.1 2.8 3.2 2 4.5s-3 1.5-4.9 0.3c-1.9-1.1-2.8-3.2-2-4.5s3-1.4 4.9-0.3z"/>
        <path class="st3" d="m549 739.7c-3.2-1.9-6.7-1.9-7.9 0.1s0.4 5.1 3.6 7.1 6.7 1.9 7.9-0.1-0.4-5.2-3.6-7.1zm-0.8 0.1c2.3 1.4 3.5 3.7 2.6 5.1s-3.4 1.5-5.7 0.1-3.5-3.7-2.6-5.1c0.9-1.5 3.4-1.5 5.7-0.1z"/>
        <path class="st3" d="m564.9 736.4c-2.7-0.3-5.1 1-5.3 2.9s1.9 3.7 4.6 3.9c2.7 0.3 5.1-1 5.3-2.9s-1.9-3.6-4.6-3.9zm-0.5 0.4c2 0.2 3.5 1.5 3.3 2.9s-1.9 2.3-3.8 2.1c-2-0.2-3.5-1.5-3.3-2.9 0.1-1.4 1.9-2.3 3.8-2.1z"/>
        <path class="st3" d="m562.4 743.5c-3.3-0.3-6.2 1.1-6.4 3.1s2.3 4 5.6 4.3 6.2-1.1 6.4-3.1-2.3-4-5.6-4.3zm-0.5 0.3c2.4 0.2 4.2 1.6 4.1 3.1s-2.2 2.5-4.6 2.2c-2.4-0.2-4.2-1.6-4.1-3.1 0.1-1.4 2.2-2.4 4.6-2.2z"/>
        <path class="st3" d="m480.3 463.5c-3.9-0.6-7.4 1.2-7.8 3.9s2.5 5.4 6.4 6 7.4-1.2 7.8-3.9c0.4-2.8-2.5-5.4-6.4-6zm-0.7 0.4c2.8 0.4 4.9 2.3 4.6 4.3s-2.8 3.3-5.7 2.9c-2.8-0.4-4.9-2.3-4.6-4.3s2.9-3.3 5.7-2.9z"/>
        <path class="st3" d="m476.3 473.5c-4.8-0.7-9 1.2-9.4 4.1s3.1 5.9 7.9 6.6 9-1.2 9.4-4.1c0.4-3-3.1-5.9-7.9-6.6zm-0.8 0.5c3.5 0.5 6 2.6 5.7 4.8-0.3 2.1-3.4 3.5-6.8 3-3.5-0.5-6-2.6-5.7-4.8s3.3-3.5 6.8-3z"/>
        <path class="st3" d="m461.6 462.2c-3.9-0.6-7.4 1.2-7.8 3.9s2.5 5.4 6.4 6 7.4-1.2 7.8-3.9c0.4-2.8-2.4-5.4-6.4-6zm-0.6 0.4c2.8 0.4 4.9 2.3 4.6 4.3s-2.8 3.3-5.7 2.9c-2.8-0.4-4.9-2.3-4.6-4.3s2.8-3.3 5.7-2.9z"/>
        <path class="st3" d="m457.6 472.2c-4.8-0.7-9 1.2-9.4 4.1s3.1 5.9 7.9 6.6 9-1.2 9.4-4.1c0.4-3-3.1-5.9-7.9-6.6zm-0.8 0.5c3.5 0.5 6 2.6 5.7 4.8-0.3 2.1-3.4 3.5-6.8 3-3.5-0.5-6-2.6-5.7-4.8s3.4-3.5 6.8-3z"/>
        <path class="st3" d="m447 457.3c-3.4-2-7.1-2.1-8.3-0.1-1.1 1.9 0.7 5.1 4.2 7.1 3.4 2 7.1 2.1 8.3 0.1 1.1-1.9-0.8-5.1-4.2-7.1zm-0.8 0c2.5 1.4 3.8 3.8 3 5.2s-3.5 1.4-6-0.1-3.8-3.8-3-5.2c0.9-1.3 3.6-1.3 6 0.1z"/>
        <path class="st3" d="m439.7 464.3c-4.2-2.4-8.8-2.3-10.3 0.3s0.7 6.6 4.8 9.1c4.2 2.4 8.8 2.3 10.3-0.3s-0.7-6.7-4.8-9.1zm-1 0.1c3 1.8 4.6 4.7 3.5 6.6s-4.4 1.9-7.4 0.2-4.6-4.7-3.5-6.6 4.4-1.9 7.4-0.2z"/>
        <path class="st3" d="m435.6 448.4c-1.9-3.5-4.8-5.6-6.3-4.7s-1.2 4.4 0.7 7.8 4.8 5.6 6.3 4.7 1.2-4.4-0.7-7.8zm-0.6-0.4c1.4 2.5 1.6 5 0.5 5.7-1.1 0.6-3.2-0.9-4.6-3.4s-1.6-5-0.5-5.7c1.1-0.6 3.2 0.9 4.6 3.4z"/>
        <path class="st3" d="m428.7 451.4c-2.4-4.2-6.4-6.4-9-5-2.6 1.5-2.8 6-0.5 10.2s6.4 6.4 9 5c2.7-1.4 2.9-6 0.5-10.2zm-0.8-0.4c1.7 3 1.6 6.4-0.3 7.4-1.9 1.1-4.8-0.6-6.5-3.6s-1.6-6.4 0.3-7.4 4.8 0.6 6.5 3.6z"/>
        <path class="st3" d="m497.1 464.9c-3.7-0.2-6.8 1.6-7 4.1-0.1 2.4 2.8 4.5 6.5 4.7s6.8-1.6 7-4.1c0.1-2.4-2.8-4.5-6.5-4.7zm-0.6 0.4c2.7 0.1 4.8 1.7 4.7 3.4-0.1 1.8-2.3 3.1-5 2.9-2.7-0.1-4.8-1.7-4.7-3.4 0-1.7 2.3-3 5-2.9z"/>
        <path class="st3" d="m494.2 473.9c-4.5-0.2-8.3 1.7-8.4 4.3s3.4 4.8 8 5.1c4.5 0.2 8.3-1.7 8.4-4.3s-3.4-4.9-8-5.1zm-0.7 0.4c3.3 0.2 5.9 1.8 5.8 3.7s-2.8 3.2-6.1 3.1-5.9-1.8-5.8-3.7c0.1-1.8 2.9-3.2 6.1-3.1z"/>
        <path class="st3" d="m515.1 466.9c-3.2-0.2-5.8 1.4-5.9 3.5s2.4 3.9 5.6 4c3.2 0.2 5.8-1.4 5.9-3.5s-2.5-3.8-5.6-4zm-0.5 0.4c2.3 0.1 4.1 1.4 4 2.9s-2 2.6-4.3 2.5-4.1-1.4-4-2.9c0-1.5 2-2.6 4.3-2.5z"/>
        <path class="st3" d="m512.6 474.6c-3.9-0.2-7.1 1.4-7.2 3.6s2.9 4.1 6.8 4.3 7.1-1.4 7.2-3.6-2.9-4.1-6.8-4.3zm-0.6 0.4c2.8 0.1 5 1.5 4.9 3.1s-2.4 2.8-5.2 2.6c-2.8-0.1-5-1.5-4.9-3.1s2.5-2.8 5.2-2.6z"/>
        <path class="st3" d="m529.5 473.1c-2.4-0.8-4.7-0.3-5.2 1.2s0.9 3.4 3.3 4.3 4.7 0.3 5.2-1.2c0.5-1.6-0.9-3.5-3.3-4.3zm-0.5 0.1c1.7 0.6 2.8 2 2.4 3.1s-2.1 1.5-3.8 0.9-2.8-2-2.4-3.1 2.1-1.5 3.8-0.9z"/>
        <path class="st3" d="m528.7 480c-2.9-1-5.6-0.5-6.2 1.1s1.3 3.8 4.1 4.8c2.9 1 5.6 0.5 6.2-1.1s-1.3-3.7-4.1-4.8zm-0.6 0.2c2.1 0.7 3.4 2.3 3 3.5s-2.4 1.5-4.5 0.8-3.4-2.3-3-3.5 2.5-1.5 4.5-0.8z"/>
        <path class="st2" d="m700 403s13.3 5.2 17.8 17.8 15.1 40.4 19.3 54.5-19.6 90-14.6 137 49 78.7 56.3 117.9c10.8 58.6-41.5 112.7-89 85.7s-12.5-62.9 4-61.7c0 0-19 29.7-2 37.2s45.3-15.3 45.3-33.7c0-38.5-51.6-65.7-69.3-116.3-15.5-44.1-13.6-122.7-7.2-155 6.5-32.3 23.6-80.4 39.4-83.4z"/>
        <path class="st3" d="m711.6 798.9c0.8 1.9 3.6 2.4 6.3 1.3s4.2-3.6 3.4-5.4-3.6-2.4-6.3-1.3c-2.6 1.1-4.2 3.5-3.4 5.4zm8.5-4.3c0.6 1.3-0.5 3.1-2.4 3.9s-4 0.4-4.5-0.9c-0.6-1.3 0.5-3.1 2.4-3.9 1.9-0.9 3.9-0.5 4.5 0.9z"/>
        <path class="st3" d="m715.5 805.9c0.9 2 4.2 2.5 7.4 1.1s5.2-4.1 4.3-6.1-4.2-2.5-7.4-1.1c-3.3 1.3-5.2 4.1-4.3 6.1zm10.3-5.2c0.6 1.4-0.8 3.4-3.1 4.4s-4.7 0.7-5.4-0.8c-0.6-1.4 0.8-3.4 3.1-4.4 2.4-1 4.8-0.6 5.4 0.8z"/>
        <path class="st3" d="m723.6 794.2c1.4 1.4 4.3 0.9 6.3-1.2s2.5-4.9 1.1-6.3-4.3-0.9-6.3 1.2c-2.1 2.1-2.6 4.9-1.1 6.3zm6.2-7.2c1 1 0.7 3.1-0.8 4.6s-3.5 1.9-4.6 0.9c-1-1-0.7-3.1 0.8-4.6s3.5-1.9 4.6-0.9z"/>
        <path class="st3" d="m729.7 799.3c1.6 1.5 4.8 0.7 7.3-1.8s3.2-5.8 1.7-7.3-4.8-0.7-7.3 1.8-3.2 5.7-1.7 7.3zm7.6-8.7c1.1 1.1 0.6 3.5-1.2 5.3s-4.1 2.4-5.3 1.3c-1.1-1.1-0.6-3.5 1.2-5.3 1.9-1.9 4.2-2.4 5.3-1.3z"/>
        <path class="st3" d="m732.8 784.6c1.3 0.1 2.5-2.2 2.8-5.1s-0.6-5.3-1.9-5.4-2.5 2.2-2.8 5.1 0.6 5.3 1.9 5.4zm0.3-9.5c0.9 0.1 1.6 1.8 1.4 3.9s-1.1 3.7-2 3.7c-0.9-0.1-1.6-1.8-1.4-3.9 0.2-2.2 1.1-3.8 2-3.7z"/>
        <path class="st3" d="m739.8 785.8c2.2 0.2 4.2-2.5 4.4-6 0.3-3.5-1.3-6.5-3.4-6.7-2.2-0.2-4.2 2.5-4.4 6-0.4 3.5 1.2 6.5 3.4 6.7zm0.2-11.6c1.6 0.1 2.7 2.3 2.5 4.8s-1.6 4.5-3.2 4.4-2.7-2.3-2.5-4.8c0.2-2.6 1.6-4.5 3.2-4.4z"/>
        <path class="st3" d="m701.5 799.5c0.1 1.6 2 2.7 4.3 2.5 2.2-0.2 4-1.6 3.8-3.1-0.1-1.6-2-2.7-4.3-2.5s-3.9 1.5-3.8 3.1zm7.3-1c0.1 1.1-1.2 2.1-2.8 2.3s-3-0.7-3.1-1.8 1.2-2.1 2.8-2.3 3 0.6 3.1 1.8z"/>
        <path class="st3" d="m702.5 805.6c0.1 1.7 2.4 2.9 5.2 2.7 2.7-0.2 4.8-1.7 4.7-3.4s-2.4-2.9-5.2-2.7c-2.7 0.2-4.8 1.7-4.7 3.4zm8.9-1.2c0.1 1.2-1.4 2.3-3.4 2.5-2 0.1-3.6-0.7-3.7-1.9s1.4-2.3 3.4-2.5 3.6 0.7 3.7 1.9z"/>
        <path class="st3" d="m693.6 795.8c-0.5 1.3 0.6 2.9 2.5 3.7 1.9 0.7 3.8 0.2 4.3-1.1s-0.6-2.9-2.5-3.7c-1.9-0.6-3.8-0.2-4.3 1.1zm6.3 2c-0.4 0.9-1.8 1.3-3.1 0.8s-2.2-1.7-1.8-2.7 1.8-1.3 3.1-0.8c1.3 0.6 2.1 1.8 1.8 2.7z"/>
        <path class="st3" d="m692.1 801.2c-0.5 1.4 0.9 3.3 3.1 4.1 2.3 0.9 4.6 0.4 5.1-1s-0.9-3.3-3.1-4.1c-2.3-0.9-4.6-0.5-5.1 1zm7.6 2.4c-0.4 1-2 1.3-3.7 0.7-1.6-0.6-2.7-2-2.3-3s2-1.3 3.7-0.7 2.7 2 2.3 3z"/>
        <path class="st3" d="m760.5 690.2c-53-63.4-55.6-105.2-58-132.1-2.3-27 14.3-92 7.1-104-7.2-11.9-12.6-10.6-12.6-10.6-16.8-1-25.2 73.5-23.9 121.5s31.3 90.5 66.4 126.5c24 24.6 35.7 47.3 40.6 59.2 0.4-6.7 0-13.5-1.3-20.5-2.6-13.9-9.8-26.9-18.3-40z"/>
        <path class="st1" d="m833.5 227.7c-7.8 21.1-25.9 30-38.2 39.8-16 12.7-22 52-22 52l14.5 35.4c16.2-31.2 48.8-74.7 45.7-127.2z"/>
        <path class="st1" d="m496.9 410.4s42.1 47.6 67.6 54.4c25.6 6.9 46.1 3.6 46.1 3.6l8.1-8.6s-34.9 5.5-57.6-3.4-64.2-46-64.2-46z"/>
        <path class="st3" d="m807.3 528.8c9.6 15.4 14.1 40.2 16.1 55 3.9-15 9.4-32.2 3.1-55.7-8.4-31.4-23.7-47.3-28.8-52-0.6-0.5-1.1-1-1.7-1.5-16.6-13.8-46-53.8-46-53.8s0.3 27.3 7.3 43.7c7 16.3 35.7 41.3 50 64.3z"/>
        <path class="st3" d="m1000.3 405.5c-7.8-43.3-58.3-58.8-88.3-51.3-34.7 8.7-78.7 71.3-123.3 43.3-3.9-2.4-6.5-5.4-8-8.9 0 0 7.4 30.2 48.7 19.6 41.3-10.7 68.5-47.1 108.3-43.3 37.5 3.5 56.2 26.7 62.6 40.6z"/>
        <path class="st3" d="m821.1 608.8c-0.7 25.6 25.7 30.4 48.3 43.3 13.3 7.6 24.9 28 32.3 43.4 0.2-2.1 0.4-4.3 0.4-6.6 2-66.6-77.1-61.1-81-80.1z"/>
        <path class="st3" d="m913.3 469.5c0.4 2.7 3.9 4.5 7.8 3.9s6.8-3.2 6.4-6c-0.4-2.7-3.9-4.5-7.8-3.9s-6.8 3.2-6.4 6zm12.7-2.7c0.3 2-1.8 3.9-4.6 4.3s-5.4-0.9-5.7-2.9 1.8-3.9 4.6-4.3c2.9-0.4 5.5 0.9 5.7 2.9z"/>
        <path class="st3" d="m915.8 480.1c0.4 2.9 4.6 4.8 9.4 4.1s8.3-3.6 7.9-6.6c-0.4-2.9-4.6-4.8-9.4-4.1s-8.3 3.6-7.9 6.6zm15.5-3.2c0.3 2.1-2.2 4.3-5.7 4.8s-6.5-0.8-6.8-3c-0.3-2.1 2.2-4.3 5.7-4.8 3.5-0.4 6.5 0.9 6.8 3z"/>
        <path class="st3" d="m932 468.2c0.4 2.7 3.9 4.5 7.8 3.9s6.8-3.2 6.4-6c-0.4-2.7-3.9-4.5-7.8-3.9-4 0.6-6.8 3.2-6.4 6zm12.7-2.7c0.3 2-1.8 3.9-4.6 4.3s-5.4-0.9-5.7-2.9 1.8-3.9 4.6-4.3 5.4 0.9 5.7 2.9z"/>
        <path class="st3" d="m934.5 478.8c0.4 2.9 4.6 4.8 9.4 4.1s8.3-3.6 7.9-6.6c-0.4-2.9-4.6-4.8-9.4-4.1s-8.3 3.6-7.9 6.6zm15.5-3.2c0.3 2.1-2.2 4.3-5.7 4.8s-6.5-0.8-6.8-3c-0.3-2.1 2.2-4.3 5.7-4.8s6.5 0.9 6.8 3z"/>
        <path class="st3" d="m948.9 464.4c1.1 1.9 4.8 1.9 8.3-0.1s5.3-5.2 4.2-7.1-4.8-1.9-8.3 0.1-5.4 5.2-4.2 7.1zm10.8-7.1c0.8 1.4-0.5 3.7-3 5.2-2.5 1.4-5.2 1.5-6 0.1s0.5-3.7 3-5.2 5.2-1.5 6-0.1z"/>
        <path class="st3" d="m955.5 473.3c1.5 2.6 6.1 2.7 10.3 0.3s6.3-6.5 4.8-9.1-6.1-2.7-10.3-0.3-6.3 6.6-4.8 9.1zm13.2-8.7c1.1 1.9-0.5 4.8-3.5 6.6s-6.3 1.7-7.4-0.2 0.5-4.8 3.5-6.6c3-1.7 6.3-1.7 7.4 0.2z"/>
        <path class="st3" d="m963.7 456.2c1.5 0.9 4.4-1.2 6.3-4.7s2.3-7 0.7-7.8c-1.5-0.9-4.4 1.2-6.3 4.7-1.9 3.4-2.2 6.9-0.7 7.8zm5.9-11.6c1.1 0.6 0.9 3.2-0.5 5.7s-3.4 4-4.6 3.4c-1.1-0.6-0.9-3.2 0.5-5.7s3.5-4 4.6-3.4z"/>
        <path class="st3" d="m971.7 461.7c2.6 1.5 6.6-0.8 9-5s2.1-8.8-0.5-10.2c-2.6-1.5-6.6 0.8-9 5-2.3 4.1-2.1 8.7 0.5 10.2zm6.9-14.3c1.9 1.1 2 4.4 0.3 7.4s-4.6 4.7-6.5 3.6-2-4.4-0.3-7.4 4.6-4.6 6.5-3.6z"/>
        <path class="st3" d="m896.4 469.6c0.1 2.4 3.2 4.2 7 4.1 3.7-0.2 6.7-2.3 6.5-4.7-0.1-2.4-3.2-4.2-7-4.1s-6.6 2.3-6.5 4.7zm12.1-1.4c0.1 1.8-2 3.3-4.7 3.4s-5-1.2-5-2.9 2-3.3 4.7-3.4 5 1.2 5 2.9z"/>
        <path class="st3" d="m897.8 479c0.1 2.6 3.9 4.5 8.4 4.3s8.1-2.5 8-5.1-3.9-4.5-8.4-4.3-8.1 2.5-8 5.1zm14.8-1.6c0.1 1.9-2.5 3.5-5.8 3.7s-6-1.2-6.1-3.1 2.5-3.5 5.8-3.7c3.2-0.1 6 1.3 6.1 3.1z"/>
        <path class="st3" d="m879.4 470.9c0.1 2.1 2.8 3.6 5.9 3.5 3.2-0.2 5.7-2 5.6-4-0.1-2.1-2.8-3.6-5.9-3.5-3.2 0.2-5.7 2-5.6 4zm10.3-1.1c0.1 1.5-1.7 2.8-4 2.9s-4.2-1-4.3-2.5 1.7-2.8 4-2.9 4.3 1 4.3 2.5z"/>
        <path class="st3" d="m880.6 478.9c0.1 2.2 3.3 3.8 7.2 3.6s6.9-2.1 6.8-4.3-3.3-3.8-7.2-3.6-6.9 2.1-6.8 4.3zm12.5-1.3c0.1 1.6-2.1 3-4.9 3.1s-5.1-1-5.2-2.6 2.1-3 4.9-3.1c2.8-0.2 5.2 1 5.2 2.6z"/>
        <path class="st3" d="m867.2 477.4c0.5 1.5 2.9 2.1 5.2 1.2s3.8-2.8 3.3-4.3-2.9-2.1-5.2-1.2c-2.4 0.8-3.8 2.7-3.3 4.3zm7.6-3.3c0.4 1.1-0.7 2.5-2.4 3.1s-3.4 0.2-3.8-0.9 0.7-2.5 2.4-3.1 3.4-0.2 3.8 0.9z"/>
        <path class="st3" d="m867.2 484.8c0.6 1.6 3.4 2.1 6.2 1.1 2.9-1 4.7-3.2 4.1-4.8s-3.4-2.1-6.2-1.1c-2.8 1.1-4.7 3.2-4.1 4.8zm9.2-3.8c0.4 1.2-0.9 2.7-3 3.5-2.1 0.7-4.1 0.4-4.5-0.8s0.9-2.7 3-3.5c2-0.7 4.1-0.4 4.5 0.8z"/>
        <path class="st1" d="m781.5 460s31.4 3.8 56-8.5c24.7-12.3 53.4-38.2 53.4-38.2s-22.7 31-44.2 43.8-55 13.5-55 13.5z"/>
        <path class="st3" d="m854.4 733c2.1 1.8 5.9 0.7 8.5-2.3 2.5-3 2.9-7 0.8-8.7-2.1-1.8-5.9-0.7-8.5 2.3-2.5 3-2.9 6.9-0.8 8.7zm7.7-10.5c1.5 1.3 1.3 4.1-0.6 6.3-1.8 2.2-4.6 3-6.1 1.7s-1.3-4.1 0.6-6.3c1.8-2.3 4.6-3 6.1-1.7z"/>
        <path class="st3" d="m863.4 739.2c2.3 1.9 6.6 0.5 9.7-3.2s3.7-8.2 1.5-10.2c-2.3-1.9-6.6-0.5-9.7 3.2s-3.8 8.3-1.5 10.2zm9.4-12.7c1.7 1.4 1.2 4.7-1.1 7.3-2.2 2.7-5.4 3.7-7 2.3-1.7-1.4-1.2-4.7 1.1-7.3 2.2-2.7 5.4-3.7 7-2.3z"/>
        <path class="st3" d="m866.1 719.9c2.6 0.8 5.8-1.5 7-5.3s0.1-7.5-2.6-8.4-5.8 1.5-7 5.3 0 7.6 2.6 8.4zm3.1-12.6c1.9 0.6 2.7 3.3 1.9 6.1-0.9 2.7-3.1 4.5-5 3.9s-2.7-3.3-1.9-6.1c0.9-2.8 3.1-4.6 5-3.9z"/>
        <path class="st3" d="m876.7 722.2c2.8 0.9 6.3-2.1 7.8-6.7s0.4-9-2.5-10c-2.8-0.9-6.3 2.1-7.8 6.7-1.4 4.7-0.3 9.1 2.5 10zm4-15.3c2.1 0.7 2.9 3.9 1.8 7.2s-3.6 5.5-5.6 4.8c-2.1-0.7-2.9-3.9-1.8-7.2 1-3.3 3.5-5.4 5.6-4.8z"/>
        <path class="st3" d="m871.4 702.5c1.6-0.7 1.7-4.2 0.2-7.9s-4.1-6.1-5.7-5.4-1.7 4.2-0.2 7.9c1.5 3.6 4.1 6 5.7 5.4zm-5.5-11.9c1.2-0.5 3 1.3 4.1 3.9 1.1 2.7 1 5.2-0.2 5.7s-3-1.3-4.1-3.9-0.9-5.2 0.2-5.7z"/>
        <path class="st3" d="m880.6 699.6c2.8-1.1 3.5-5.7 1.7-10.1-1.8-4.5-5.5-7.2-8.3-6-2.8 1.1-3.5 5.7-1.7 10.1s5.6 7.1 8.3 6zm-6.8-14.3c2-0.8 4.7 1.1 6 4.4 1.3 3.2 0.8 6.5-1.2 7.3s-4.7-1.1-6-4.4-0.8-6.4 1.2-7.3z"/>
        <path class="st3" d="m842.4 740c1.1 1.8 4.1 2 6.8 0.4 2.6-1.6 3.9-4.4 2.8-6.2s-4.1-2-6.8-0.4-3.9 4.4-2.8 6.2zm8.3-5.8c0.8 1.3-0.1 3.3-2 4.5-1.9 1.1-4.1 1-4.9-0.3s0.1-3.3 2-4.5c1.9-1.1 4.1-1 4.9 0.3z"/>
        <path class="st3" d="m847.4 746.8c1.2 2 4.7 2 7.9 0.1s4.8-5.1 3.6-7.1-4.7-2-7.9-0.1-4.8 5.1-3.6 7.1zm10.1-6.9c0.9 1.4-0.3 3.7-2.6 5.1s-4.9 1.4-5.7-0.1c-0.9-1.4 0.3-3.7 2.6-5.1s4.8-1.4 5.7 0.1z"/>
        <path class="st3" d="m830.5 740.4c0.2 1.9 2.6 3.2 5.3 2.9s4.8-2 4.6-3.9-2.6-3.2-5.3-2.9c-2.7 0.2-4.8 2-4.6 3.9zm8.9-1.5c0.1 1.4-1.4 2.7-3.3 2.9-2 0.2-3.7-0.8-3.8-2.1-0.1-1.4 1.4-2.7 3.3-2.9s3.7 0.7 3.8 2.1z"/>
        <path class="st3" d="m832 747.8c0.2 2.1 3.1 3.4 6.4 3.1s5.8-2.3 5.6-4.3-3.1-3.4-6.4-3.1-5.8 2.3-5.6 4.3zm10.8-1.7c0.1 1.5-1.7 2.9-4.1 3.1s-4.5-0.8-4.6-2.2 1.7-2.9 4.1-3.1c2.3-0.3 4.4 0.7 4.6 2.2z"/>
        <path class="st1" d="m773.1 632.2s11.5 14 37.3 21.3 56.6 22.5 56.6 22.5-22.7-16.6-45.9-23.8c-23.3-7.2-48-20-48-20z"/>
        <path class="st1" d="m805.5 746.4s7.9 13.4 21.9 14.1c14 0.8 34.7-8.4 34.7-8.4s-25.7 8-34.3 6.3-22.3-12-22.3-12z"/>
        <path class="st1" d="m648.8 534s-14.5 17-15.3 30.8 5.9 44.4-3.1 62-39.1 25.4-39.1 25.4 31.7-13.4 35.6-31.4-2.4-45.9 1.9-62.7c4.3-16.9 20-24.1 20-24.1z"/>
        <ellipse class="st1" transform="matrix(.2785 -.9604 .9604 .2785 344.69 952.71)" cx="806.5" cy="246.9" rx="9.8" ry="8.1"/>
        <ellipse class="st1" transform="matrix(.2785 -.9604 .9604 .2785 366.2 955)" cx="818.7" cy="233.8" rx="6.2" ry="5.2"/>
        <ellipse class="st1" transform="matrix(.2785 -.9604 .9604 .2785 377.8 938.17)" cx="813.3" cy="217.6" rx="8.7" ry="7.2"/>
        <ellipse class="st1" transform="matrix(.2785 -.9604 .9604 .2785 357.2 929.21)" cx="797.1" cy="226.9" rx="7" ry="5.8"/>
        <ellipse class="st1" transform="matrix(.2785 -.9604 .9604 .2785 361.09 941.49)" cx="807.2" cy="230.4" rx="2.4" ry="2"/>
        <ellipse class="st1" transform="matrix(.2785 -.9604 .9604 .2785 352.21 964.38)" cx="818" cy="247.8" rx="2.4" ry="2"/>
        <ellipse class="st1" transform="matrix(.2785 -.9604 .9604 .2785 338.78 937.09)" cx="793.1" cy="243.1" rx="2.4" ry="2"/>
        <ellipse class="st1" transform="matrix(.2785 -.9604 .9604 .2785 322.06 933.83)" cx="782.6" cy="252.6" rx="2.4" ry="2"/>
        <ellipse class="st1" transform="matrix(.2785 -.9604 .9604 .2785 372.83 920.68)" cx="799.2" cy="212.2" rx="3.3" ry="2.7"/>
        <ellipse class="st1" transform="matrix(.2785 -.9604 .9604 .2785 326.19 965.09)" cx="805.4" cy="265.4" rx="3.3" ry="2.7"/>
        <ellipse class="st1" transform="matrix(.2785 -.9604 .9604 .2785 402.83 922.17)" cx="815.2" cy="193" rx="3.3" ry="2.7"/>
        <ellipse class="st1" transform="matrix(.2785 -.9604 .9604 .2785 321.31 952.21)" cx="794.4" cy="262.2" rx="3.3" ry="2.7"/>
        <ellipse class="st1" transform="matrix(.2785 -.9604 .9604 .2785 395.7 942.28)" cx="825" cy="207.8" rx="4" ry="3.3"/>
        <ellipse class="st1" transform="matrix(.2785 -.9604 .9604 .2785 384.49 952.15)" cx="826" cy="220.2" rx="2.4" ry="2"/>
        <ellipse class="st1" transform="matrix(.7872 -.6166 .6166 .7872 -18.17 411.51)" cx="587.3" cy="232.1" rx="8.1" ry="9.8"/>
        <ellipse class="st1" transform="matrix(.7872 -.6166 .6166 .7872 -28.313 417.43)" cx="590.8" cy="249.7" rx="5.2" ry="6.2"/>
        <ellipse class="st1" transform="matrix(.7872 -.6166 .6166 .7872 -27.964 428.52)" cx="607" cy="254.8" rx="7.2" ry="8.7"/>
        <ellipse class="st1" transform="matrix(.7872 -.6166 .6166 .7872 -16.073 425.81)" cx="609" cy="236.2" rx="5.8" ry="7"/>
        <ellipse class="st1" transform="matrix(.7872 -.6166 .6166 .7872 -21.728 421.69)" cx="600.2" cy="242.3" rx="2" ry="2.4"/>
        <ellipse class="st1" transform="matrix(.7872 -.6166 .6166 .7872 -25.214 408.82)" cx="579.8" cy="240.9" rx="2" ry="2.4"/>
        <ellipse class="st1" transform="matrix(.7872 -.6166 .6166 .7872 -10.554 416.43)" cx="598.2" cy="223.5" rx="2" ry="2.4"/>
        <ellipse class="st1" transform="matrix(.7872 -.6166 .6166 .7872 -2.1949 412.48)" cx="596.7" cy="209.4" rx="2" ry="2.4"/>
        <ellipse class="st1" transform="matrix(.7872 -.6166 .6166 .7872 -20.16 434.57)" cx="619.7" cy="246.5" rx="2.7" ry="3.3"/>
        <ellipse class="st1" transform="matrix(.7872 -.6166 .6166 .7872 -14.064 400.14)" cx="572.8" cy="220.4" rx="2.7" ry="3.3"/>
        <ellipse class="st1" transform="matrix(.7872 -.6166 .6166 .7872 -33.759 443.58)" cx="625.9" cy="270.7" rx="2.7" ry="3.3"/>
        <ellipse class="st1" transform="matrix(.7872 -.6166 .6166 .7872 -7.7835 404.2)" cx="581.9" cy="213.4" rx="2.7" ry="3.3"/>
        <ellipse class="st1" transform="matrix(.7872 -.6166 .6166 .7872 -37.115 432.49)" cx="608.2" cy="270" rx="3.3" ry="4"/>
        <ellipse class="st1" transform="matrix(.7872 -.6166 .6166 .7872 -35.395 424.56)" cx="597.6" cy="263.6" rx="2" ry="2.4"/>
        <ellipse class="st1" transform="matrix(.9945 -.105 .105 .9945 -44.205 63.832)" cx="584.3" cy="451.8" rx="8.3" ry="6.7"/>
        <ellipse class="st1" transform="matrix(.9945 -.105 .105 .9945 -44.676 65.344)" cx="598.4" cy="457.1" rx="5.3" ry="4.3"/>
        <ellipse class="st1" transform="matrix(.9945 -.105 .105 .9945 -43.655 66.432)" cx="609.3" cy="447.9" rx="7.3" ry="5.9"/>
        <ellipse class="st1" transform="matrix(.9945 -.105 .105 .9945 -42.725 65.087)" cx="596.9" cy="438.4" rx="5.9" ry="4.8"/>
        <ellipse class="st1" transform="matrix(.9945 -.105 .105 .9945 -43.649 65.18)" cx="597.4" cy="447.2" rx="2" ry="1.6"/>
        <ellipse class="st1" transform="matrix(.9945 -.105 .105 .9945 -45.138 64.196)" cx="587.3" cy="460.9" rx="2" ry="1.6"/>
        <ellipse class="st1" transform="matrix(.9945 -.105 .105 .9945 -43.016 63.643)" cx="583.1" cy="440.5" rx="2" ry="1.6"/>
        <ellipse class="st1" transform="matrix(.9945 -.105 .105 .9945 -44.211 60.55)" cx="553.1" cy="450.3" rx="2" ry="1.6"/>
        <ellipse class="st1" transform="matrix(.9945 -.105 .105 .9945 -42.347 66.34)" cx="609" cy="435.5" rx="2.8" ry="2.3"/>
        <ellipse class="st1" transform="matrix(.9945 -.105 .105 .9945 -44.813 62.314)" cx="569.6" cy="456.9" rx="2.8" ry="2.3"/>
        <ellipse class="st1" transform="matrix(.9945 -.105 .105 .9945 -42.885 68.474)" cx="629" cy="441.6" rx="2.8" ry="2.3"/>
        <ellipse class="st1" transform="matrix(.9945 -.105 .105 .9945 -43.832 62.158)" cx="568.6" cy="447.5" rx="2.8" ry="2.3"/>
        <ellipse class="st1" transform="matrix(.9945 -.105 .105 .9945 -44.203 67.657)" cx="620.6" cy="453.7" rx="3.4" ry="2.7"/>
        <ellipse class="st1" transform="matrix(.9945 -.105 .105 .9945 -44.739 66.702)" cx="611.3" cy="458.4" rx="2" ry="1.6"/>
        <path class="st3" d="m787.3 164.8c8.5 1 21.1 4.3 31.4 11.5-31-54.6-118.7-48.2-118.7-48.2s-92.5-6.8-121.1 52.7c-1.4 2.9-2.7 5.9-3.8 8.8 11.8-7.8 40.8-26.6 50.9-28.8 12.7-2.7 13.6 37.3 30 54.7 16.4 17.3 34.7 9.9 58.7-6.1 24-15.9 29.7-35.6 53.2-31.9 23.4 3.7 7.8-14 19.4-12.7z"/>
      </g>
    </g>
  </g>
</svg>
